<?xml version="1.0" encoding="utf-8"?>
<!-- Generator: Adobe Illustrator 16.0.0, SVG Export Plug-In . SVG Version: 6.00 Build 0)  -->
<!DOCTYPE svg PUBLIC "-//W3C//DTD SVG 1.1//EN" "http://www.w3.org/Graphics/SVG/1.1/DTD/svg11.dtd">
<svg version="1.1" id="Layer_1" xmlns="http://www.w3.org/2000/svg" xmlns:xlink="http://www.w3.org/1999/xlink" x="0px" y="0px"
	 width="204.035px" height="383.578px" viewBox="0 0 204.035 383.578" enable-background="new 0 0 204.035 383.578"
	 xml:space="preserve">
<path fill="none" d="M48.044,280.482c17.336,0,29.876-12.32,29.876-29.805c0-16.334-14.326-27.797-29.876-27.797
	c-15.55,0-29.876,11.463-29.876,27.797C18.168,268.162,30.703,280.482,48.044,280.482 M48.044,236.491
	c8.384,0,15.26,6.813,15.26,14.263c0,9.312-6.876,16.12-15.26,16.12c-8.384,0-15.26-6.808-15.26-16.12
	C32.784,243.305,39.66,236.491,48.044,236.491z M98.631,250.12l39.062,28.259h0.699v-53.706H124.35v28.193h-0.142l-39.096-28.193
	H84.44v53.706h14.048V250.12H98.631z M178.309,236.568v-11.896h-30.74v54.021h30.74v-11.896h-16.697v-9.31h15.834v-11.895h-15.834
	v-9.027h16.697V236.568z M46.581,287.098c-14.787,0-28.414,10.902-28.414,26.436c0,16.626,11.924,28.345,28.414,28.345
	c16.488,0,28.412-11.719,28.412-28.345C74.993,298,61.366,287.098,46.581,287.098z M46.581,328.932
	c-7.97,0-14.513-6.472-14.513-15.328c0-7.084,6.543-13.562,14.513-13.562c7.974,0,14.511,6.478,14.511,13.562
	C61.092,322.46,54.555,328.932,46.581,328.932z M76.56,340.176h14.173l12.744-23.699h0.137l12.404,23.699h14.238l-26.752-51.375
	L76.56,340.176z M180.607,288.801h-16.555l-16.15,21.193h-0.137v-21.193h-13.354v51.375h13.354v-22.279h0.137l17.242,22.279h17.304
	l-22.28-27.053L180.607,288.801z M201.934,34.349c0,0,2.103,17.992-5.742,22.714c0,0-1.662-5.673-6.034-10.455
	c0,0,7.312-32.492-0.69-46.608l0.104,11.094c0,0-1.166,19.122-4.463,31.426c0,0-5.08-3.221-9.592-10.153
	c-4.511-6.93-3.817-4.617-3.259-1.702c0.558,2.926,6.231,12.648,6.231,12.648l4.845,4.884c0,0-6.306,16.575-9.498,20.212
	c-3.183,3.642-12.453,10.137-17.994,15.14c-5.552,5.014-11.127,9.95-13.651,12.648c-2.521,2.705-5.354,1.361-5.441-3.684
	c-0.08-5.052-0.121-12.669-0.484-12.852c-0.383-0.172-3.267,10.894-3.267,10.894s2.185,11.796-12.959,24.764l-5.095,3.084
	l-1.682-0.397c-6.138-2.319-16.381-2.249-22.542,0l-1.595,0.397l-5.101-3.084c-15.136-12.968-12.962-24.764-12.962-24.764
	s-2.878-11.066-3.258-10.894c-0.369,0.183-0.519,10.702-0.488,12.852c0.025,2.158-2.916,6.389-5.446,3.684
	c-2.519-2.698-8.101-7.634-13.64-12.648c-5.548-5.003-14.816-11.498-18.004-15.14c-3.188-3.637-9.495-20.212-9.495-20.212
	l4.847-4.884c0,0,5.676-9.722,6.23-12.648c0.334-1.754,0.721-3.291-0.014-2.733c-0.478,0.376-1.457,1.674-3.251,4.435
	c-4.505,6.932-9.592,10.153-9.592,10.153c-3.293-12.304-4.45-31.426-4.45-31.426L14.6,0c-8,14.116-0.693,46.608-0.693,46.608
	c-4.095,4.901-6.032,10.455-6.032,10.455c-7.042-7.336-5.739-22.714-5.739-22.714c-6.989,17.507,5.412,33.489,5.412,33.489
	l10.219,10.936c0,0,15.132,4.775,34.714,20.311c13.199,10.473,20.244,19.265,20.244,19.265l-26.975-1.972l17.37,17.866l15.016,0.329
	l3.864,2.88l-1.387,14.332l13.005,34.588l-0.106,6.203l4.784,7.72h7.954l4.84-7.956l-0.562-6.098l12.754-34.519l-1.172-14.396
	l3.986-2.754l17.029-1.347l15.23-16.848l-27.024,1.988c0,0,7.028-8.788,20.261-19.281c19.574-15.536,34.717-20.311,34.717-20.311
	l9.938-10.29C196.245,68.484,208.92,51.856,201.934,34.349z M15.885,68.75c-2.972-8.214-0.101-14.781-0.101-14.781l2.279,5.782
	L23.3,71.437C23.3,71.437,16.384,69.949,15.885,68.75z M188.178,68.75c-0.488,1.199-7.408,2.687-7.408,2.687l5.228-11.686
	l2.282-5.782C188.279,53.969,191.152,60.536,188.178,68.75z"/>
<line fill="none" x1="18.168" y1="352.947" x2="185.825" y2="352.947"/>
<path fill="none" d="M36.699,375.189c0,4.84-3.972,8.679-8.768,8.679c-4.796,0-8.767-3.839-8.767-8.679
	c0-4.818,3.971-8.723,8.767-8.723C32.727,366.467,36.699,370.371,36.699,375.189 M21.038,375.167c0,3.792,3.079,6.96,6.893,6.96
	c3.815,0,6.894-3.168,6.894-6.96c0-3.815-3.035-6.96-6.894-6.96C24.072,368.207,21.038,371.352,21.038,375.167z"/>
<polyline fill="none" points="39.351,366.043 52.468,379.786 52.468,366.757 54.342,366.757 54.342,384.336 41.224,370.616 
	41.224,383.578 39.351,383.578 39.351,366.043 "/>
<polyline fill="none" points="57.841,366.757 66.564,366.757 66.564,368.498 59.715,368.498 59.715,373.495 66.363,373.495 
	66.363,375.232 59.715,375.232 59.715,381.837 66.564,381.837 66.564,383.578 57.841,383.578 57.841,366.757 "/>
<path fill="none" d="M93.309,375.189c0,4.84-3.971,8.679-8.767,8.679s-8.767-3.839-8.767-8.679c0-4.818,3.971-8.723,8.767-8.723
	S93.309,370.371,93.309,375.189 M77.649,375.167c0,3.792,3.078,6.96,6.893,6.96s6.894-3.168,6.894-6.96
	c0-3.815-3.035-6.96-6.894-6.96S77.649,371.352,77.649,375.167z"/>
<polyline fill="none" points="97.724,368.498 97.724,373.495 103.322,373.495 103.322,375.232 97.724,375.232 97.724,383.578 
	95.85,383.578 95.85,366.757 103.501,366.757 103.501,368.498 97.724,368.498 "/>
<path fill="none" d="M115.9,378.802l-2.027,4.775h-2.055l7.765-17.624l7.562,17.624h-2.074l-1.985-4.775H115.9 M119.539,370.327
	l-2.878,6.735h5.688L119.539,370.327z"/>
<polyline fill="none" points="144.877,366.757 147.396,366.757 139.5,374.587 147.665,383.578 145.078,383.578 138.184,375.857 
	137.716,376.328 137.716,383.578 135.842,383.578 135.842,366.757 137.716,366.757 137.716,373.962 144.877,366.757 "/>
<rect x="149.516" y="366.757" fill="none" width="1.873" height="16.82"/>
<polyline fill="none" points="154.913,366.043 168.029,379.786 168.029,366.757 169.904,366.757 169.904,384.336 156.787,370.616 
	156.787,383.578 154.913,383.578 154.913,366.043 "/>
<path fill="none" d="M173.404,366.757h3.168c2.52,0,4.572,0.334,6.558,2.03c1.919,1.648,2.788,3.902,2.788,6.4
	c0,2.455-0.893,4.617-2.743,6.271c-2.008,1.784-4.015,2.119-6.647,2.119h-3.123V366.757 M176.637,381.837
	c2.053,0,3.771-0.29,5.311-1.741c1.384-1.294,2.098-3.055,2.098-4.929c0-1.919-0.734-3.771-2.188-5.042
	c-1.539-1.361-3.233-1.628-5.221-1.628h-1.359v13.34H176.637L176.637,381.837z"/>
</svg>
